<?xml version="1.0" encoding="utf-8"?>
<!-- Generator: Adobe Illustrator 17.0.0, SVG Export Plug-In . SVG Version: 6.00 Build 0)  -->
<!DOCTYPE svg PUBLIC "-//W3C//DTD SVG 1.1//EN" "http://www.w3.org/Graphics/SVG/1.1/DTD/svg11.dtd">
<svg version="1.1" id="Layer_1" xmlns="http://www.w3.org/2000/svg" xmlns:xlink="http://www.w3.org/1999/xlink" x="0px" y="0px"
	 width="360px" height="203px" viewBox="-10 -62.5 360 203" enable-background="new -10 -62.5 360 203" xml:space="preserve">
<path fill="#CDCCCC" d="M246.177,119.216c0,2.608,0.008,5.057-0.004,7.505c-0.005,0.946-0.745,0.715-1.277,0.716
	c-4.968,0.012-9.936,0.008-14.905,0.008h-5.236c-4.351-0.001-7.14-2.126-8.224-6.383c-0.274-1.072-0.395-2.207-0.403-3.316
	c-0.04-5.325-0.011-10.651-0.022-15.977c-0.004-1.969,0.433-3.802,1.455-5.5c1.556-2.586,3.701-3.919,6.84-3.867
	c6.666,0.11,13.336,0.033,20.005,0.033h1.681v8.179c-0.454,0.022-0.923,0.063-1.391,0.063c-5.371,0.005-10.742,0.003-16.113,0.004
	c-2.86,0-4.468,0.958-4.734,3.809c-0.347,3.711-0.239,7.493,0.022,11.219c0.135,1.914,1.724,3.61,4.456,3.545
	c5.413-0.129,10.83-0.038,16.246-0.038H246.177z"/>
<path fill="#CDCCCC" d="M93.273,101.733c-0.036-1.563-0.475-3.203-1.094-4.65c-1.301-3.038-3.527-4.835-7.084-4.664
	c-2.677,0.128-5.366,0.025-8.05,0.025c-2.997,0.001-5.994,0.022-8.99-0.007c-1.866-0.017-3.382,0.706-4.658,2.014
	c-2.055,2.105-2.876,4.686-2.881,7.568c-0.008,4.742-0.017,9.483,0.006,14.224c0.006,1.248,0.029,2.511,0.216,3.741
	c0.744,4.894,3.75,7.444,8.67,7.444c5.234,0,10.469-0.083,15.7,0.03c3.104,0.067,5.321-1.31,6.667-3.884
	c0.823-1.574,1.418-3.446,1.477-5.205C93.438,112.828,93.402,107.276,93.273,101.733 M85.902,113.241
	c-0.068,1.178-0.363,2.377-0.762,3.493c-0.605,1.693-1.879,2.513-3.738,2.428c-1.471-0.067-2.948-0.013-4.423-0.013
	c-1.43,0-2.86,0.005-4.289-0.001c-2.373-0.01-3.921-1.123-4.394-3.464c-0.297-1.469-0.326-3.011-0.32-4.521
	c0.008-2.271-0.073-4.577,0.296-6.801c0.463-2.796,1.848-3.715,4.664-3.716c2.771-0.002,5.545,0.08,8.311-0.026
	c2.065-0.08,3.361,0.906,4.022,2.672c0.427,1.139,0.582,2.423,0.64,3.651C86.009,109.039,86.023,111.147,85.902,113.241"/>
<polygon fill="#CDCCCC" points="-3,92.409 -3,127.461 22.786,127.461 22.786,119.2 4.398,119.2 4.398,113.597 22.786,113.597 
	22.786,106.128 4.327,106.128 4.327,100.597 22.786,100.597 22.786,92.409 "/>
<polygon fill="#CDCCCC" points="24.51,92.409 31.693,92.409 41.82,109.934 51.661,92.409 59.059,92.409 59.059,127.461 
	51.804,127.461 51.804,106.558 41.784,124.013 31.693,106.558 31.693,127.461 24.222,127.461 "/>
<polygon fill="#CDCCCC" points="94.83,92.409 94.83,100.597 104.742,100.597 104.742,127.461 112.284,127.461 112.284,100.597 
	122.053,100.597 122.053,92.409 "/>
<polygon fill="#CDCCCC" points="123.776,92.409 130.959,92.409 130.959,127.461 123.489,127.461 "/>
<polygon fill="#CDCCCC" points="166.729,92.409 166.729,127.461 174.199,127.461 174.199,103.829 190.385,127.461 197.974,127.461 
	197.974,92.409 190.385,92.409 190.385,115.68 174.199,92.409 "/>
<polygon fill="#CDCCCC" points="247.751,127.389 260.967,92.41 269.228,92.41 282.587,127.389 274.83,127.389 265.169,102.178 
	255.293,127.389 "/>
<path fill="#CDCCCC" d="M344,100.741v-8.332h-23.143c0,0-7.24-0.734-7.24,11.133c0,10.235,6.68,10.055,6.68,10.055h13.701
	c0,0,2.388-0.053,2.388,2.873c0,2.623-1.795,2.659-1.795,2.659h-20.974v8.259h23.415c0,0,6.992,0.396,6.968-11.564
	c-0.021-10.212-7.183-9.625-9.338-9.625h-11.223c0,0-2.195-0.031-2.195-3.088c0-2.46,2.248-2.518,2.248-2.518L344,100.741z"/>
<path fill="#CDCCCC" d="M307.978,116.848c3.986-2.747,4.956-7.11,4.094-15.622c-0.862-8.511-6.896-8.816-6.896-8.816h-21.278v34.979
	h7.326l-0.054-9.786h8.404l3.394,9.786h9.394L307.978,116.848z M301.729,109.36h-10.397v-8.889h10.415c0,0,3.052,0.144,3.052,4.445
	C304.799,109.467,302.443,109.36,301.729,109.36"/>
<path fill="#CDCCCC" d="M165.604,101.733c-0.036-1.563-0.475-3.203-1.094-4.65c-1.301-3.038-3.527-4.835-7.084-4.664
	c-2.677,0.128-5.366,0.025-8.05,0.025c-2.997,0.001-5.994,0.022-8.99-0.007c-1.866-0.017-3.382,0.706-4.658,2.014
	c-2.055,2.105-2.876,4.686-2.881,7.568c-0.008,4.742-0.017,9.483,0.006,14.224c0.006,1.248,0.029,2.511,0.216,3.741
	c0.744,4.894,3.75,7.444,8.67,7.444c5.234,0,10.469-0.083,15.7,0.03c3.104,0.067,5.321-1.31,6.667-3.884
	c0.823-1.574,1.418-3.446,1.477-5.205C165.769,112.828,165.733,107.276,165.604,101.733 M158.233,113.241
	c-0.068,1.178-0.363,2.377-0.762,3.493c-0.605,1.693-1.879,2.513-3.738,2.428c-1.471-0.067-2.948-0.013-4.423-0.013
	c-1.43,0-2.86,0.005-4.289-0.001c-2.373-0.01-3.921-1.123-4.394-3.464c-0.297-1.469-0.326-3.011-0.32-4.521
	c0.008-2.271-0.073-4.577,0.296-6.801c0.463-2.796,1.848-3.715,4.664-3.716c2.771-0.002,5.545,0.08,8.311-0.026
	c2.065-0.08,3.361,0.906,4.022,2.672c0.427,1.139,0.582,2.423,0.64,3.651C158.34,109.039,158.354,111.147,158.233,113.241"/>
<rect x="120.616" y="-5.923" fill="#B41A21" width="19.896" height="19.896"/>
<path fill="#B41A21" d="M148.153,45.415h-32.494v-77.269h32.769c1.379-2.188,3.045-4.516,5.058-6.847
	c3.804-4.407,9.244-9.248,16.693-12.905H91.956v116.72h77.439C160.378,60.881,153.291,54.3,148.153,45.415"/>
<path fill="#CDCCCC" d="M224.312,29.38c-2.847,7.29-9.455,17.49-24.184,17.49c-22.913,0-27.33-20.902-28.12-31.891
	c-0.791-10.991-2.406-48.412,28.048-48.484c9.826,0,18.561,3.426,23.256,13.575h25.354c-0.885-3.942-8.844-33.831-46.885-33.831
	c-40.727,0-50.495,34.909-50.495,34.909s-6.036,19.298-3.089,37.924c3.017,19.071,12.139,44.965,48.34,47.838
	c34.021,2.7,47.638-19.592,52.19-37.53C248.727,29.38,224.312,29.38,224.312,29.38z"/>
</svg>
