<?xml version="1.0" encoding="UTF-8"?>
<!DOCTYPE svg PUBLIC "-//W3C//DTD SVG 1.1//EN" "http://www.w3.org/Graphics/SVG/1.1/DTD/svg11.dtd">
<!-- Creator: CorelDRAW X7 -->
<svg xmlns="http://www.w3.org/2000/svg" xml:space="preserve" width="125mm" height="43.7892mm" version="1.1" style="shape-rendering:geometricPrecision; text-rendering:geometricPrecision; image-rendering:optimizeQuality; fill-rule:evenodd; clip-rule:evenodd"
viewBox="0 0 13248 4641"
 xmlns:xlink="http://www.w3.org/1999/xlink">
 <defs>
  <style type="text/css">
   <![CDATA[
    .fil0 {fill:#D81F37}
    .fil1 {fill:#FEFEFE;fill-rule:nonzero}
    .fil2 {fill:#FEFEFE;fill-rule:nonzero}
   ]]>
  </style>
 </defs>
 <g id="Vrstva_x0020_1">
  <metadata id="CorelCorpID_0Corel-Layer"/>
  <g id="_2697119700480">
   <polygon class="fil0" points="0,0 13248,0 13248,3144 0,3144 "/>
   <polygon class="fil1" points="977,2234 2562,2234 2562,2591 581,2591 581,610 2562,610 2562,967 977,967 977,1421 2562,1421 2562,1778 977,1778 "/>
   <path class="fil1" d="M4499 610c179,0 323,55 432,163 109,109 164,252 164,430 0,157 -48,288 -142,392 -95,103 -221,163 -379,179l521 817 -448 0 -505 -813 -674 0 0 813 -397 0 0 -1981 1428 0zm0 811c58,0 106,-18 144,-55 37,-36 55,-83 55,-142l0 -60c0,-59 -18,-106 -55,-143 -38,-36 -86,-54 -144,-54l-1031 0 0 454 1031 0z"/>
   <path class="fil1" d="M6221 1778c-176,0 -316,-54 -420,-161 -105,-107 -158,-250 -158,-429 0,-174 53,-313 159,-419 106,-106 245,-159 419,-159l813 0c117,0 220,25 309,74 89,50 158,119 207,209 49,90 74,193 74,310l-396 0 0 -39c0,-59 -18,-106 -54,-143 -37,-36 -85,-54 -146,-54l-792 0c-58,0 -106,18 -142,54 -36,37 -55,84 -55,143l0 60c0,59 19,106 56,142 38,37 86,55 144,55l847 0c175,0 315,53 420,160 105,107 158,251 158,432 0,174 -53,313 -159,419 -106,106 -246,159 -419,159l-889 0c-178,0 -321,-54 -430,-163 -109,-109 -163,-253 -163,-433l396 0 0 43c0,58 18,106 55,142 36,36 83,54 142,54l871 0c60,0 109,-18 145,-54 36,-36 54,-84 54,-142l0 -61c0,-58 -18,-106 -54,-144 -36,-37 -85,-55 -145,-55l-847 0z"/>
   <polygon class="fil1" points="10157,610 10157,967 9364,967 9364,2591 8965,2591 8965,967 8173,967 8173,610 "/>
   <polygon class="fil1" points="11062,2234 12647,2234 12647,2591 10666,2591 10666,610 12647,610 12647,967 11062,967 11062,1421 12647,1421 12647,1778 11062,1778 "/>
   <polygon class="fil0" points="10773,4091 12744,4091 12744,4220 10773,4220 "/>
   <polygon class="fil0" points="581,4091 2553,4091 2553,4220 581,4220 "/>
   <polygon class="fil2" points="3603,3809 3603,3692 2941,3692 2941,4630 3075,4630 3075,4251 3546,4251 3546,4136 3075,4136 3075,3809 "/>
   <path id="1" class="fil2" d="M4662 4630l141 0 -426 -938 -133 0 -424 938 138 0 103 -234 498 0 103 234zm-554 -342l202 -459 202 459 -404 0z"/>
   <path id="2" class="fil2" d="M5561 4641c146,0 272,-51 357,-148l-87 -84c-72,76 -160,113 -264,113 -211,0 -368,-153 -368,-361 0,-207 157,-360 368,-360 104,0 192,35 264,111l87 -84c-85,-97 -211,-146 -356,-146 -285,0 -497,202 -497,479 0,278 212,480 496,480z"/>
   <polygon id="3" class="fil2" points="6323,4630 6456,4630 6456,3692 6323,3692 "/>
   <polygon id="4" class="fil2" points="6950,4630 7592,4630 7592,4514 7084,4514 7084,3692 6950,3692 "/>
   <polygon id="5" class="fil2" points="7959,4630 8093,4630 8093,3692 7959,3692 "/>
   <polygon id="6" class="fil2" points="8773,4630 8905,4630 8905,3809 9227,3809 9227,3692 8451,3692 8451,3809 8773,3809 "/>
   <polygon id="7" class="fil2" points="10306,3692 10173,3692 9872,4187 9572,3692 9429,3692 9801,4303 9801,4630 9934,4630 9934,4306 "/>
  </g>
 </g>
</svg>
