<?xml version="1.0" encoding="UTF-8"?>
<!DOCTYPE svg PUBLIC "-//W3C//DTD SVG 1.1//EN" "http://www.w3.org/Graphics/SVG/1.1/DTD/svg11.dtd">
<!-- Creator: CorelDRAW X7 -->
<svg xmlns="http://www.w3.org/2000/svg" xml:space="preserve" width="125mm" height="43.6466mm" version="1.1" style="shape-rendering:geometricPrecision; text-rendering:geometricPrecision; image-rendering:optimizeQuality; fill-rule:evenodd; clip-rule:evenodd"
viewBox="0 0 14008 4891"
 xmlns:xlink="http://www.w3.org/1999/xlink">
 <defs>
  <style type="text/css">
   <![CDATA[
    .fil0 {fill:#D81F37}
    .fil1 {fill:#FEFEFE;fill-rule:nonzero}
    .fil2 {fill:#FEFEFE;fill-rule:nonzero}
   ]]>
  </style>
 </defs>
 <g id="Vrstva_x0020_1">
  <metadata id="CorelCorpID_0Corel-Layer"/>
  <g id="_2696861188320">
   <polygon class="fil0" points="0,0 14008,0 14008,3325 0,3325 "/>
   <polygon class="fil1" points="1033,2362 2709,2362 2709,2740 614,2740 614,645 2709,645 2709,1022 1033,1022 1033,1502 2709,1502 2709,1880 1033,1880 "/>
   <path class="fil1" d="M4757 645c190,0 342,58 457,173 115,115 173,266 173,454 0,166 -50,304 -150,414 -100,110 -234,173 -400,190l550 864 -473 0 -534 -860 -713 0 0 860 -419 0 0 -2095 1509 0zm0 857c62,0 112,-19 152,-57 39,-39 59,-89 59,-151l0 -64c0,-61 -20,-112 -59,-150 -40,-38 -90,-58 -152,-58l-1090 0 0 480 1090 0z"/>
   <path class="fil1" d="M6578 1880c-186,0 -334,-57 -445,-170 -111,-113 -166,-264 -166,-454 0,-183 56,-331 168,-443 112,-112 260,-168 443,-168l860 0c124,0 232,26 326,78 94,53 167,126 219,221 53,95 79,204 79,328l-419 0 0 -42c0,-61 -19,-112 -58,-150 -38,-38 -89,-58 -153,-58l-838 0c-62,0 -112,20 -150,58 -39,38 -58,89 -58,150l0 64c0,62 20,112 59,151 40,38 90,57 152,57l895 0c186,0 334,57 445,170 111,113 166,265 166,457 0,183 -56,331 -168,443 -112,112 -259,168 -443,168l-940 0c-187,0 -339,-58 -454,-173 -115,-115 -173,-267 -173,-457l419 0 0 45c0,61 20,112 58,150 38,38 88,57 150,57l921 0c64,0 115,-19 154,-57 38,-38 57,-89 57,-150l0 -64c0,-62 -19,-113 -57,-152 -39,-40 -90,-59 -154,-59l-895 0z"/>
   <polygon class="fil1" points="10740,645 10740,1022 9902,1022 9902,2740 9480,2740 9480,1022 8642,1022 8642,645 "/>
   <polygon class="fil1" points="11697,2362 13373,2362 13373,2740 11278,2740 11278,645 13373,645 13373,1022 11697,1022 11697,1502 13373,1502 13373,1880 11697,1880 "/>
   <path class="fil2" d="M4055 4891l-234 -339c143,-46 224,-158 224,-321 0,-211 -143,-333 -392,-333l-377 0 0 993 114 0 0 -315 263 0c23,0 44,-1 64,-3l209 318 129 0zm-665 -420l0 -468 263 0c181,0 283,79 283,231 0,156 -102,237 -283,237l-263 0z"/>
   <polygon class="fil2" points="4601,3898 4601,4891 5294,4891 5294,4786 4715,4786 4715,4440 5216,4440 5216,4336 4715,4336 4715,4003 5276,4003 5276,3898 "/>
   <path class="fil2" d="M6564 4891l124 0 -445 -993 -117 0 -446 993 121 0 110 -254 541 0 112 254zm-606 -359l223 -511 226 511 -449 0z"/>
   <polygon class="fil2" points="7143,3898 7143,4891 7693,4891 7693,4786 7257,4786 7257,3898 "/>
   <polygon class="fil2" points="8176,3898 8176,4891 8290,4891 8290,3898 "/>
   <polygon class="fil2" points="8756,3898 8756,4003 9079,4003 9079,4891 9193,4891 9193,4003 9518,4003 9518,3898 "/>
   <polygon class="fil2" points="10711,3898 10595,3898 10277,4419 9955,3898 9837,3898 10222,4549 10222,4891 10334,4891 10334,4546 "/>
   <polygon class="fil0" points="11391,4326 13476,4326 13476,4462 11391,4462 "/>
   <polygon class="fil0" points="614,4326 2699,4326 2699,4462 614,4462 "/>
  </g>
 </g>
</svg>
