<?xml version="1.0" encoding="UTF-8" standalone="no"?>
<!-- Created with Inkscape (http://www.inkscape.org/) -->

<svg
   xmlns:dc="http://purl.org/dc/elements/1.1/"
   xmlns:cc="http://creativecommons.org/ns#"
   xmlns:rdf="http://www.w3.org/1999/02/22-rdf-syntax-ns#"
   xmlns:svg="http://www.w3.org/2000/svg"
   xmlns="http://www.w3.org/2000/svg"
   xmlns:sodipodi="http://sodipodi.sourceforge.net/DTD/sodipodi-0.dtd"
   xmlns:inkscape="http://www.inkscape.org/namespaces/inkscape"
   width="268"
   height="42"
   id="svg2"
   inkscape:label="Pozadí"
   version="1.1"
   inkscape:version="0.91 r13725"
   sodipodi:docname="logo-BM.svg">
  <defs
     id="defs3291" />
  <sodipodi:namedview
     id="base"
     pagecolor="#ffffff"
     bordercolor="#666666"
     borderopacity="1.0"
     inkscape:pageopacity="0.0"
     inkscape:pageshadow="2"
     inkscape:zoom="11.2"
     inkscape:cx="150.46582"
     inkscape:cy="25.839199"
     inkscape:document-units="px"
     inkscape:current-layer="layer1"
     showgrid="false"
     inkscape:window-width="1600"
     inkscape:window-height="837"
     inkscape:window-x="-8"
     inkscape:window-y="-8"
     inkscape:window-maximized="1"
     fit-margin-top="0"
     fit-margin-left="0"
     fit-margin-right="0"
     fit-margin-bottom="0" />
  <metadata
     id="metadata3294">
    <rdf:RDF>
      <cc:Work
         rdf:about="">
        <dc:format>image/svg+xml</dc:format>
        <dc:type
           rdf:resource="http://purl.org/dc/dcmitype/StillImage" />
        <dc:title></dc:title>
      </cc:Work>
    </rdf:RDF>
  </metadata>
  <g
     inkscape:label="Vrstva 1"
     inkscape:groupmode="layer"
     id="layer1"
     transform="translate(-119.05233,-1010.3176)">
    <g
       id="g5028"
       transform="matrix(0.50156674,0,0,0.50156674,64.702156,764.37486)">
      <g
         transform="matrix(1.25,0,0,-1.25,245.87437,560.52043)"
         id="g20">
        <path
           id="path22"
           style="fill:#231f20;fill-opacity:1;fill-rule:nonzero;stroke:none"
           d="m 0,0 c -0.216,1.529 -1.683,2.691 -3.36,2.691 -3.034,0 -4.174,-2.586 -4.174,-5.274 0,-2.562 1.14,-5.143 4.174,-5.143 2.066,0 3.23,1.419 3.488,3.442 l 3.271,0 c -0.346,-3.831 -2.991,-6.284 -6.759,-6.284 -4.757,0 -7.555,3.552 -7.555,7.985 0,4.563 2.798,8.115 7.555,8.115 C 0.02,5.532 2.861,3.551 3.27,0 L 0,0 Z"
           inkscape:connector-curvature="0" />
      </g>
      <g
         transform="matrix(1.25,0,0,-1.25,251.36999,569.93568)"
         id="g24">
        <path
           id="path26"
           style="fill:#231f20;fill-opacity:1;fill-rule:nonzero;stroke:none"
           d="m 0,0 8.241,9.86 -7.596,0 0,2.837 12.095,0 0,-2.668 -8.243,-9.859 8.458,0 0,-2.838 L 0,-2.668 0,0 Z"
           inkscape:connector-curvature="0" />
      </g>
      <g
         transform="matrix(1.25,0,0,-1.25,270.47949,554.06418)"
         id="g28">
        <path
           id="path30"
           style="fill:#231f20;fill-opacity:1;fill-rule:nonzero;stroke:none"
           d="m 0,0 11.489,0 0,-2.837 -8.113,0 0,-3.298 7.447,0 0,-2.625 -7.447,0 0,-3.767 8.289,0 0,-2.839 L 0,-15.366 0,0 Z"
           inkscape:connector-curvature="0" />
      </g>
      <g
         transform="matrix(1.25,0,0,-1.25,300.32574,560.52043)"
         id="g32">
        <path
           id="path34"
           style="fill:#231f20;fill-opacity:1;fill-rule:nonzero;stroke:none"
           d="m 0,0 c -0.216,1.529 -1.681,2.691 -3.36,2.691 -3.032,0 -4.174,-2.586 -4.174,-5.274 0,-2.562 1.142,-5.143 4.174,-5.143 2.066,0 3.231,1.419 3.489,3.442 l 3.269,0 c -0.344,-3.831 -2.99,-6.284 -6.758,-6.284 -4.756,0 -7.555,3.552 -7.555,7.985 0,4.563 2.799,8.115 7.555,8.115 C 0.021,5.532 2.861,3.551 3.27,0 L 0,0 Z"
           inkscape:connector-curvature="0" />
      </g>
      <g
         transform="matrix(1.25,0,0,-1.25,307.35812,554.0788)"
         id="g36">
        <path
           id="path38"
           style="fill:#231f20;fill-opacity:1;fill-rule:nonzero;stroke:none"
           d="m 0,0 3.375,0 0,-5.892 6.213,0 0,5.892 3.378,0 0,-15.354 -3.378,0 0,6.622 -6.213,0 0,-6.622 -3.375,0 L 0,0 Z"
           inkscape:connector-curvature="0" />
      </g>
      <g
         transform="matrix(1.25,0,0,-1.25,338.96824,562.76168)"
         id="g40">
        <path
           id="path42"
           style="fill:#231f20;fill-opacity:1;fill-rule:nonzero;stroke:none"
           d="m 0,0 3.699,0 c 1.505,0 2.322,0.646 2.322,2.194 0,1.481 -0.817,2.127 -2.322,2.127 L 0,4.321 0,0 Z m -3.375,6.946 8.277,0 c 2.754,0 4.494,-1.915 4.494,-4.235 0,-1.807 -0.729,-3.162 -2.431,-3.851 l 0,-0.047 c 1.657,-0.427 2.131,-2.04 2.238,-3.587 0.064,-0.968 0.043,-2.774 0.646,-3.634 l -3.375,0 c -0.411,0.97 -0.366,2.451 -0.54,3.678 -0.237,1.611 -0.858,2.321 -2.559,2.321 l -3.375,0 0,-5.999 -3.375,0 0,15.354 z"
           inkscape:connector-curvature="0" />
      </g>
      <g
         transform="matrix(1.25,0,0,-1.25,353.85049,554.0788)"
         id="g44">
        <path
           id="path46"
           style="fill:#231f20;fill-opacity:1;fill-rule:nonzero;stroke:none"
           d="m 0,0 11.482,0 0,-2.838 -8.107,0 0,-3.293 7.44,0 0,-2.622 -7.44,0 0,-3.765 8.281,0 0,-2.836 L 0,-15.354 0,0 Z"
           inkscape:connector-curvature="0" />
      </g>
      <g
         transform="matrix(1.25,0,0,-1.25,375.75049,563.11318)"
         id="g48">
        <path
           id="path50"
           style="fill:#231f20;fill-opacity:1;fill-rule:nonzero;stroke:none"
           d="m 0,0 2.623,0 c 1.572,0 2.969,0.347 2.969,2.302 0,1.958 -1.397,2.301 -2.969,2.301 L 0,4.603 0,0 Z m -3.376,7.228 6.925,0 c 3.83,0 5.31,-2.431 5.31,-4.926 0,-2.494 -1.48,-4.923 -5.31,-4.923 l -3.549,0 0,-5.505 -3.376,0 0,15.354 z"
           inkscape:connector-curvature="0" />
      </g>
      <g
         transform="matrix(1.25,0,0,-1.25,405.35499,566.01606)"
         id="g52">
        <path
           id="path54"
           style="fill:#231f20;fill-opacity:1;fill-rule:nonzero;stroke:none"
           d="m 0,0 c 0,-4.146 -2.451,-6.171 -6.561,-6.171 -4.127,0 -6.535,2.001 -6.535,6.171 l 0,9.55 3.375,0 0,-9.55 c 0,-1.675 0.432,-3.332 3.16,-3.332 2.413,0 3.186,1.055 3.186,3.332 l 0,9.55 L 0,9.55 0,0 Z"
           inkscape:connector-curvature="0" />
      </g>
      <g
         transform="matrix(1.25,0,0,-1.25,412.54737,569.99068)"
         id="g56">
        <path
           id="path58"
           style="fill:#231f20;fill-opacity:1;fill-rule:nonzero;stroke:none"
           d="m 0,0 3.611,0 c 1.338,0 2.496,0.43 2.496,2.019 0,1.573 -0.99,2.194 -2.429,2.194 L 0,4.213 0,0 Z m 0,6.512 3.422,0 c 1.182,0 2.062,0.542 2.062,1.831 0,1.462 -1.119,1.761 -2.322,1.761 L 0,10.104 0,6.512 Z m -3.375,6.217 7.225,0 c 2.925,0 4.9,-0.945 4.9,-3.806 C 8.75,7.417 7.998,6.362 6.666,5.718 8.537,5.182 9.484,3.74 9.484,1.826 c 0,-3.119 -2.648,-4.451 -5.418,-4.451 l -7.441,0 0,15.354 z"
           inkscape:connector-curvature="0" />
      </g>
      <g
         transform="matrix(1.25,0,0,-1.25,426.70749,554.0788)"
         id="g60">
        <path
           id="path62"
           style="fill:#231f20;fill-opacity:1;fill-rule:nonzero;stroke:none"
           d="m 0,0 3.376,0 0,-12.518 7.486,0 0,-2.836 L 0,-15.354 0,0 Z"
           inkscape:connector-curvature="0" />
      </g>
      <path
         id="path64"
         style="fill:#231f20;fill-opacity:1;fill-rule:nonzero;stroke:none"
         d="m 442.59062,554.07843 4.21625,0 0,19.1925 -4.21625,0 0,-19.1925 z"
         inkscape:connector-curvature="0" />
      <g
         transform="matrix(1.25,0,0,-1.25,462.94649,560.53143)"
         id="g66">
        <path
           id="path68"
           style="fill:#231f20;fill-opacity:1;fill-rule:nonzero;stroke:none"
           d="m 0,0 c -0.215,1.529 -1.678,2.69 -3.35,2.69 -3.033,0 -4.173,-2.585 -4.173,-5.271 0,-2.56 1.14,-5.139 4.173,-5.139 2.061,0 3.225,1.418 3.483,3.439 l 3.265,0 c -0.343,-3.827 -2.986,-6.278 -6.748,-6.278 -4.757,0 -7.552,3.55 -7.552,7.978 0,4.56 2.795,8.109 7.552,8.109 C 0.025,5.528 2.861,3.547 3.273,0 L 0,0 Z"
           inkscape:connector-curvature="0" />
      </g>
      <g
         transform="matrix(1.25,0,0,-1.25,242.05974,526.98768)"
         id="g70">
        <path
           id="path72"
           style="fill:#231f20;fill-opacity:1;fill-rule:nonzero;stroke:none"
           d="m 0,0 8.172,0 c 3.016,0 5.643,0.972 5.643,4.572 0,3.55 -2.237,4.961 -5.496,4.961 L 0,9.533 0,0 Z m 0,14.739 7.734,0 c 2.677,0 4.67,1.214 4.67,4.135 0,3.309 -2.529,3.986 -5.253,3.986 L 0,22.86 0,14.739 Z m -7.638,14.056 16.346,0 c 6.616,0 11.088,-2.14 11.088,-8.611 0,-3.4 -1.702,-5.788 -4.717,-7.245 4.233,-1.219 6.373,-4.476 6.373,-8.804 0,-7.052 -5.985,-10.07 -12.259,-10.07 l -16.831,0 0,34.73 z"
           inkscape:connector-curvature="0" />
      </g>
      <g
         transform="matrix(1.25,0,0,-1.25,301.34674,534.40593)"
         id="g74">
        <path
           id="path76"
           style="fill:#231f20;fill-opacity:1;fill-rule:nonzero;stroke:none"
           d="m 0,0 -6.566,0 0,3.503 -0.143,0 c -1.754,-2.82 -4.768,-4.185 -7.688,-4.185 -7.343,0 -9.192,4.134 -9.192,10.363 l 0,15.469 6.907,0 0,-14.204 c 0,-4.135 1.215,-6.179 4.425,-6.179 3.747,0 5.352,2.09 5.352,7.2 l 0,13.183 L 0,25.15 0,0 Z"
           inkscape:connector-curvature="0" />
      </g>
      <g
         transform="matrix(1.25,0,0,-1.25,312.36299,524.19043)"
         id="g78">
        <path
           id="path80"
           style="fill:#231f20;fill-opacity:1;fill-rule:nonzero;stroke:none"
           d="m 0,0 c 0.047,-3.017 2.575,-4.231 5.302,-4.231 1.995,0 4.523,0.776 4.523,3.207 0,2.094 -2.869,2.822 -7.831,3.893 -3.987,0.879 -7.979,2.285 -7.979,6.711 0,6.423 5.547,8.076 10.947,8.076 5.496,0 10.554,-1.846 11.088,-8.026 l -6.566,0 c -0.194,2.676 -2.238,3.405 -4.717,3.405 -1.558,0 -3.845,-0.29 -3.845,-2.333 0,-2.483 3.892,-2.824 7.833,-3.747 4.037,-0.922 7.977,-2.382 7.977,-7.054 0,-6.615 -5.74,-8.755 -11.481,-8.755 -5.836,0 -11.526,2.19 -11.817,8.854 L 0,0 Z"
           inkscape:connector-curvature="0" />
      </g>
      <path
         id="path82"
         style="fill:#231f20;fill-opacity:1;fill-rule:nonzero;stroke:none"
         d="m 336.41937,502.96843 8.635,0 0,31.4375 -8.635,0 0,-31.4375 z m 8.635,-4.86125 -8.635,0 0,-7.1125 8.635,0 0,7.1125 z"
         inkscape:connector-curvature="0" />
      <g
         transform="matrix(1.25,0,0,-1.25,349.41324,502.96856)"
         id="g84">
        <path
           id="path86"
           style="fill:#231f20;fill-opacity:1;fill-rule:nonzero;stroke:none"
           d="m 0,0 6.567,0 0,-3.501 0.148,0 c 1.75,2.816 4.766,4.18 7.684,4.18 7.347,0 9.194,-4.134 9.194,-10.362 l 0,-15.467 -6.907,0 0,14.206 c 0,4.132 -1.217,6.176 -4.429,6.176 -3.742,0 -5.348,-2.093 -5.348,-7.198 l 0,-13.184 L 0,-25.15 0,0 Z"
           inkscape:connector-curvature="0" />
      </g>
      <g
         transform="matrix(1.25,0,0,-1.25,404.28812,515.31355)"
         id="g88">
        <path
           id="path90"
           style="fill:#231f20;fill-opacity:1;fill-rule:nonzero;stroke:none"
           d="M 0,0 C -0.635,3.501 -2.137,5.349 -5.494,5.349 -9.869,5.349 -11.135,1.943 -11.236,0 L 0,0 Z m -11.236,-4.377 c 0.199,-4.381 2.336,-6.373 6.177,-6.373 2.774,0 5.012,1.703 5.452,3.259 l 6.078,0 c -1.944,-5.933 -6.078,-8.465 -11.774,-8.465 -7.926,0 -12.836,5.449 -12.836,13.234 0,7.536 5.205,13.277 12.836,13.277 8.565,0 12.703,-7.199 12.209,-14.932 l -18.142,0 z"
           inkscape:connector-curvature="0" />
      </g>
      <g
         transform="matrix(1.25,0,0,-1.25,422.78662,524.19043)"
         id="g92">
        <path
           id="path94"
           style="fill:#231f20;fill-opacity:1;fill-rule:nonzero;stroke:none"
           d="m 0,0 c 0.047,-3.017 2.576,-4.231 5.301,-4.231 1.997,0 4.526,0.776 4.526,3.207 0,2.094 -2.871,2.822 -7.833,3.893 -3.988,0.879 -7.978,2.285 -7.978,6.711 0,6.423 5.546,8.076 10.947,8.076 5.495,0 10.554,-1.846 11.087,-8.026 l -6.563,0 c -0.195,2.676 -2.238,3.405 -4.719,3.405 -1.561,0 -3.846,-0.29 -3.846,-2.333 0,-2.483 3.892,-2.824 7.835,-3.747 4.035,-0.922 7.974,-2.382 7.974,-7.054 0,-6.615 -5.738,-8.755 -11.481,-8.755 -5.834,0 -11.527,2.19 -11.816,8.854 L 0,0 Z"
           inkscape:connector-curvature="0" />
      </g>
      <g
         transform="matrix(1.25,0,0,-1.25,453.91337,524.19043)"
         id="g96">
        <path
           id="path98"
           style="fill:#231f20;fill-opacity:1;fill-rule:nonzero;stroke:none"
           d="m 0,0 c 0.051,-3.017 2.574,-4.231 5.301,-4.231 1.99,0 4.519,0.776 4.519,3.207 0,2.094 -2.865,2.822 -7.826,3.893 -3.984,0.879 -7.978,2.285 -7.978,6.711 0,6.423 5.546,8.076 10.945,8.076 5.494,0 10.551,-1.846 11.092,-8.026 l -6.573,0 c -0.189,2.676 -2.238,3.405 -4.714,3.405 -1.555,0 -3.838,-0.29 -3.838,-2.333 0,-2.483 3.885,-2.824 7.826,-3.747 4.037,-0.922 7.978,-2.382 7.978,-7.054 0,-6.615 -5.744,-8.755 -11.484,-8.755 -5.834,0 -11.523,2.19 -11.814,8.854 L 0,0 Z"
           inkscape:connector-curvature="0" />
      </g>
      <g
         transform="matrix(1.25,0,0,-1.25,478.02949,490.99405)"
         id="g100">
        <path
           id="path102"
           style="fill:#231f20;fill-opacity:1;fill-rule:nonzero;stroke:none"
           d="m 0,0 10.752,0 8.117,-23.881 0.098,0 7.689,23.881 10.746,0 0,-34.729 -7.15,0 0,24.613 -0.09,0 -8.516,-24.613 -5.886,0 -8.508,24.369 -0.1,0 0,-24.369 -7.152,0 L 0,0 Z"
           inkscape:connector-curvature="0" />
      </g>
      <g
         transform="matrix(1.25,0,0,-1.25,550.69062,515.31355)"
         id="g104">
        <path
           id="path106"
           style="fill:#231f20;fill-opacity:1;fill-rule:nonzero;stroke:none"
           d="M 0,0 C -0.637,3.501 -2.139,5.349 -5.498,5.349 -9.873,5.349 -11.141,1.943 -11.236,0 L 0,0 Z m -11.236,-4.377 c 0.195,-4.381 2.332,-6.373 6.177,-6.373 2.774,0 5.012,1.703 5.448,3.259 l 6.076,0 c -1.938,-5.933 -6.076,-8.465 -11.768,-8.465 -7.931,0 -12.838,5.449 -12.838,13.234 0,7.536 5.202,13.277 12.838,13.277 8.561,0 12.698,-7.199 12.209,-14.932 l -18.142,0 z"
           inkscape:connector-curvature="0" />
      </g>
      <g
         transform="matrix(1.25,0,0,-1.25,578.408,508.62781)"
         id="g108">
        <path
           id="path110"
           style="fill:#231f20;fill-opacity:1;fill-rule:nonzero;stroke:none"
           d="m 0,0 c -4.529,0 -6.084,-3.889 -6.084,-8.024 0,-3.942 1.801,-8.075 6.084,-8.075 4.566,0 5.928,3.991 5.928,8.124 C 5.928,-3.889 4.469,0 0,0 m 6.025,-17.412 -0.097,0 c -1.604,-2.726 -4.426,-3.892 -7.635,-3.892 -7.59,0 -11.283,6.52 -11.283,13.473 0,6.76 3.74,13.037 11.135,13.037 2.966,0 5.886,-1.264 7.492,-3.744 l -0.047,0 0.098,0 0,12.645 6.908,0 0,-34.73 -6.571,0 0,3.211 z"
           inkscape:connector-curvature="0" />
      </g>
      <path
         id="path112"
         style="fill:#231f20;fill-opacity:1;fill-rule:nonzero;stroke:none"
         d="m 598.34437,502.96843 8.6325,0 0,31.4375 -8.6325,0 0,-31.4375 z m 8.6325,-4.86125 -8.6325,0 0,-7.1125 8.6325,0 0,7.1125 z"
         inkscape:connector-curvature="0" />
      <g
         transform="matrix(1.25,0,0,-1.25,631.01787,519.02331)"
         id="g114">
        <path
           id="path116"
           style="fill:#231f20;fill-opacity:1;fill-rule:nonzero;stroke:none"
           d="m 0,0 c -1.168,-1.023 -3.602,-1.07 -5.74,-1.458 -2.143,-0.438 -4.088,-1.167 -4.088,-3.7 0,-2.576 1.994,-3.207 4.23,-3.207 5.407,0 5.598,4.278 5.598,5.787 L 0,0 Z m -15.955,5.11 c 0.391,6.468 6.178,8.412 11.82,8.412 5.01,0 11.045,-1.117 11.045,-7.15 l 0,-13.085 c 0,-2.287 0.242,-4.573 0.875,-5.593 l -7.006,0 c -0.242,0.78 -0.439,1.604 -0.486,2.431 -2.188,-2.284 -5.397,-3.113 -8.467,-3.113 -4.769,0 -8.56,2.385 -8.56,7.539 0,5.695 4.279,7.055 8.56,7.638 C -3.938,2.821 0,2.678 0,5.497 0,8.464 -2.041,8.901 -4.477,8.901 -7.102,8.901 -8.805,7.833 -9.045,5.11 l -6.91,0 z"
           inkscape:connector-curvature="0" />
      </g>
      <g
         transform="matrix(1.25,0,0,-1.25,191.54337,495.97156)"
         id="g118">
        <path
           id="path120"
           style="fill:#ef2f2c;fill-opacity:1;fill-rule:nonzero;stroke:none"
           d="m 0,0 c 0,-2.2 -1.782,-3.98 -3.979,-3.98 l -57.875,0 c -2.194,0 -3.98,1.78 -3.98,3.98 0,2.198 1.786,3.98 3.98,3.98 l 57.875,0 C -1.782,3.98 0,2.198 0,0"
           inkscape:connector-curvature="0" />
      </g>
      <g
         transform="matrix(1.25,0,0,-1.25,191.54337,520.0798)"
         id="g122">
        <path
           id="path124"
           style="fill:#ef2f2c;fill-opacity:1;fill-rule:nonzero;stroke:none"
           d="m 0,0 c 0,-2.201 -1.782,-3.98 -3.979,-3.98 l -57.875,0 c -2.194,0 -3.98,1.779 -3.98,3.98 0,2.198 1.786,3.98 3.98,3.98 l 57.875,0 C -1.782,3.98 0,2.198 0,0"
           inkscape:connector-curvature="0" />
      </g>
      <g
         transform="matrix(1.25,0,0,-1.25,191.54337,544.18618)"
         id="g126">
        <path
           id="path128"
           style="fill:#ef2f2c;fill-opacity:1;fill-rule:nonzero;stroke:none"
           d="m 0,0 c 0,-2.201 -1.782,-3.981 -3.979,-3.981 l -57.875,0 c -2.194,0 -3.98,1.78 -3.98,3.981 0,2.196 1.786,3.98 3.98,3.98 l 57.875,0 C -1.782,3.98 0,2.196 0,0"
           inkscape:connector-curvature="0" />
      </g>
      <g
         transform="matrix(1.25,0,0,-1.25,191.54337,568.29505)"
         id="g130">
        <path
           id="path132"
           style="fill:#ef2f2c;fill-opacity:1;fill-rule:nonzero;stroke:none"
           d="m 0,0 c 0,-2.2 -1.782,-3.981 -3.979,-3.981 l -24.962,0 c -2.201,0 -3.98,1.781 -3.98,3.981 0,2.198 1.779,3.98 3.98,3.98 l 24.962,0 C -1.782,3.98 0,2.198 0,0"
           inkscape:connector-curvature="0" />
      </g>
    </g>
  </g>
</svg>
